<?xml version="1.0" encoding="UTF-8"?>
<svg width="100pt" height="100pt" version="1.1" viewBox="0 0 100 100" xmlns="http://www.w3.org/2000/svg">
 <g>
  <path d="m85.672 20.758-32.57 29.488 36.105 24.066c4.3945-7.0664 6.9453-15.395 6.9453-24.312 0-11.086-3.9336-21.277-10.48-29.242z"/>
  <path d="m51.926 3.8945v42.227l31.18-28.227c-7.9766-8.2227-18.973-13.496-31.18-14z"/>
  <path d="m3.8477 50c0 11.332 4.1172 21.719 10.918 29.762l33.312-30.156v-45.711c-24.555 1.0117-44.23 21.309-44.23 46.105z"/>
  <path d="m51.926 96.105c14.363-0.59375 27.055-7.7773 35.117-18.609l-35.117-23.41z"/>
  <path d="m48.078 96.105v-41.312l-30.715 27.805c7.9375 7.9453 18.746 13.016 30.715 13.508z"/>
 </g>
</svg>
