<?xml version="1.0" encoding="UTF-8"?>
<svg width="128pt" height="128pt" version="1.1" viewBox="0 0 128 128" xmlns="http://www.w3.org/2000/svg">
 <g>
  <path d="m74.027 41.812h-20.055c-1.8125 0-3.3086 1.6016-3.3086 3.3086v59.945c0 1.8125 1.6016 3.3086 3.3086 3.3086h20.055c1.8125 0 3.3086-1.6016 3.3086-3.3086l-0.003907-59.945c0-1.8125-1.5977-3.3086-3.3047-3.3086z"/>
  <path d="m34.027 41.812h-20.055c-1.8125 0-3.3086 1.6016-3.3086 3.3086v68.906c0 1.8125 1.6016 3.3086 3.3086 3.3086h20.055c1.8125 0 3.3086-1.6016 3.3086-3.3086l-0.003907-68.906c0-1.8125-1.5977-3.3086-3.3047-3.3086z"/>
  <path d="m114.03 10.668h-100.05c-1.8125 0-3.3086 1.6016-3.3086 3.3086v11.094c0 1.8125 1.6016 3.3086 3.3086 3.3086h100.05c1.8125 0 3.3086-1.6016 3.3086-3.3086l-0.003907-11.098c0-1.707-1.5977-3.3047-3.3047-3.3047z"/>
  <path d="m114.03 41.812h-20.055c-1.8125 0-3.3086 1.6016-3.3086 3.3086v51.094c0 1.8125 1.6016 3.3086 3.3086 3.3086h20.055c1.8125 0 3.3086-1.6016 3.3086-3.3086l-0.003907-51.094c0-1.8125-1.5977-3.3086-3.3047-3.3086z"/>
 </g>
</svg>
