<?xml version="1.0" encoding="UTF-8"?>
<svg width="128pt" height="128pt" version="1.1" viewBox="0 0 128 128" xmlns="http://www.w3.org/2000/svg">
 <g>
  <path d="m69.332 32.48c6.0664 1.0547 11.707 3.8086 16.27 7.9453l17.227-12.906c-8.8008-9.3867-20.695-15.277-33.496-16.586z"/>
  <path d="m116.32 74.188c0.66016-3.3555 1-6.7656 1.0117-10.188-0.007812-9.9023-2.7969-19.605-8.0508-28l-17.121 12.852c2.5312 4.6484 3.8555 9.8555 3.8398 15.148-0.007812 1.3008-0.097656 2.6016-0.26562 3.8945z"/>
  <path d="m34.348 75.945c-3.6055-8.9766-2.9531-19.102 1.7695-27.547 4.7227-8.4414 13.012-14.293 22.551-15.918v-21.332c-17.32 1.7461-32.695 11.832-41.191 27.023-8.4961 15.188-9.0469 33.57-1.4766 49.242z"/>
  <path d="m92.691 78.133c-4.7344 9.5938-13.949 16.184-24.559 17.566-10.605 1.3828-21.203-2.6289-28.238-10.688l-18.133 11.465v0.003907c11.602 15.082 30.363 22.84 49.234 20.355 18.867-2.4844 34.98-14.836 42.285-32.41z"/>
 </g>
</svg>
