<svg height='100px' width='100px'  fill="#ffffff" xmlns="http://www.w3.org/2000/svg" xmlns:xlink="http://www.w3.org/1999/xlink" version="1.1" x="0px" y="0px" viewBox="0 0 100 100" enable-background="new 0 0 100 100" xml:space="preserve"><path d="M80.961,38.327h-0.827C80.032,18.693,67.673,5,50,5C32.329,5,19.969,18.693,19.867,38.327h-0.829  c-4.519,0-8.216,3.696-8.216,8.218v40.239c0,4.521,3.697,8.216,8.216,8.216h61.923c4.52,0,8.217-3.695,8.217-8.216V46.545  C89.178,42.023,85.48,38.327,80.961,38.327z M53.423,66.837l-0.024,7.399c-0.004,2.26-1.582,4.109-3.507,4.109  c-1.924,0-3.496-1.851-3.493-4.109l0.015-7.49c-2.253-1.26-3.776-3.665-3.776-6.434c0-4.065,3.297-7.361,7.363-7.361  c4.066,0,7.361,3.296,7.361,7.361C57.361,63.146,55.766,65.604,53.423,66.837z M31.385,38.327C31.46,24.813,39.089,15.388,50,15.388  c10.91,0,18.54,9.425,18.613,22.939H31.385z"></path></svg>