<svg height='100px' width='100px'  fill="#ffffff" xmlns:dc="http://purl.org/dc/elements/1.1/" xmlns:cc="http://creativecommons.org/ns#" xmlns:rdf="http://www.w3.org/1999/02/22-rdf-syntax-ns#" xmlns:svg="http://www.w3.org/2000/svg" xmlns="http://www.w3.org/2000/svg" xmlns:sodipodi="http://sodipodi.sourceforge.net/DTD/sodipodi-0.dtd" xmlns:inkscape="http://www.inkscape.org/namespaces/inkscape" version="1.1" x="0px" y="0px" viewBox="0 0 100 100"><g transform="translate(0,-952.36218)"><path d="m 18.999999,961.36216 0,82.00004 62.000001,0 0,-62.00004 -17.999999,0 c -1.04717,-10e-5 -1.9999,-0.95283 -2,-2 l 0,-18 z m 46.000001,2 0,14 14,0 z m -36.000001,30 34.000001,0 c 1.104601,0 2,0.8954 2,2 0,1.1046 -0.895399,2 -2,2 l -34.000001,0 c -1.1046,0 -2,-0.8954 -2,-2 0,-1.1046 0.8954,-2 2,-2 z m 0,16.00004 42.000001,0 c 1.104601,0 2,0.8954 2,2 0,1.1046 -0.895399,2 -2,2 l -42.000001,0 c -1.1046,0 -2,-0.8954 -2,-2 0,-1.1046 0.8954,-2 2,-2 z m 0,16 42.000001,0 c 1.104601,0 2,0.8954 2,2 0,1.1046 -0.895399,2 -2,2 l -42.000001,0 c -1.1046,0 -2,-0.8954 -2,-2 0,-1.1046 0.8954,-2 2,-2 z" style="color:#000000;enable-background:accumulate;" fill="#ffffff" stroke="none" marker="none" visibility="visible" display="inline" overflow="visible"></path></g></svg>