<svg height='100px' width='100px'  fill="#ffffff" xmlns:dc="http://purl.org/dc/elements/1.1/" xmlns:cc="http://creativecommons.org/ns#" xmlns:rdf="http://www.w3.org/1999/02/22-rdf-syntax-ns#" xmlns:svg="http://www.w3.org/2000/svg" xmlns="http://www.w3.org/2000/svg" xmlns:sodipodi="http://sodipodi.sourceforge.net/DTD/sodipodi-0.dtd" xmlns:inkscape="http://www.inkscape.org/namespaces/inkscape" viewBox="0 0 16 16" version="1.1" x="0px" y="0px"><g transform="translate(0,-1036.3622)"><g transform="translate(-66.999329,19.499601)"><g transform="translate(67.012722,-18.496791)"><g transform="translate(0.0168932,-1.00281)"><g transform="translate(-0.0253296,0.9892617)"><g transform="translate(-0.08087249,-0.9649437)"><g transform="translate(0.07873131,0.98782369)"><path style="color:#000000;font-style:normal;font-variant:normal;font-weight:normal;font-stretch:normal;font-size:medium;line-height:normal;font-family:sans-serif;text-indent:0;text-align:start;text-decoration:none;text-decoration-line:none;text-decoration-style:solid;text-decoration-color:#000000;letter-spacing:normal;word-spacing:normal;text-transform:none;direction:ltr;block-progression:tb;writing-mode:lr-tb;baseline-shift:baseline;text-anchor:start;white-space:normal;clip-rule:nonzero;display:inline;overflow:visible;visibility:visible;opacity:1;isolation:auto;mix-blend-mode:normal;color-interpolation:sRGB;color-interpolation-filters:linearRGB;solid-color:#000000;solid-opacity:1;fill:#ffffff;fill-opacity:1;fill-rule:nonzero;stroke:none;stroke-width:1px;stroke-linecap:butt;stroke-linejoin:miter;stroke-miterlimit:4;stroke-dasharray:none;stroke-dashoffset:0;stroke-opacity:1;color-rendering:auto;image-rendering:auto;shape-rendering:auto;text-rendering:auto;enable-background:accumulate" d="M 4.015625 3.0019531 L 4.015625 4.0019531 L 13.015625 4.0019531 L 13.015625 3.0019531 L 4.015625 3.0019531 z M 4.015625 5.0019531 L 4.015625 6.0019531 L 9.015625 6.0019531 L 9.015625 5.0019531 L 4.015625 5.0019531 z M 4.015625 7.0019531 L 4.015625 8.0019531 L 13.015625 8.0019531 L 13.015625 7.0019531 L 4.015625 7.0019531 z M 4.015625 9.0019531 L 4.015625 10.001953 L 9.015625 10.001953 L 9.015625 9.0019531 L 4.015625 9.0019531 z M 4.015625 11.001953 L 4.015625 12.001953 L 13.015625 12.001953 L 13.015625 11.001953 L 4.015625 11.001953 z " transform="translate(-0.00281542,1035.3501)"></path></g></g></g></g></g></g></g></svg>