<svg height='100px' width='100px'  fill="#ffffff" xmlns="http://www.w3.org/2000/svg" xmlns:xlink="http://www.w3.org/1999/xlink" version="1.1" x="0px" y="0px" viewBox="0 0 100 100" enable-background="new 0 0 100 100" xml:space="preserve"><g display="none"><g display="inline"><path d="M50,5C25.147,5,5,25.147,5,50c0,24.852,20.147,45,45,45c24.852,0,45-20.148,45-45C95,25.147,74.852,5,50,5z M50,90    c-22.092,0-40-17.909-40-40c0-22.092,17.908-40,40-40c22.091,0,40,17.908,40,40C90,72.091,72.091,90,50,90z"></path><path d="M70.548,32.189c-1.741-1.345-4.266-1.021-5.611,0.719L45.362,58.241L35.073,44.741c-1.334-1.75-3.856-2.09-5.606-0.757v0    c-1.75,1.333-2.09,3.856-0.757,5.606l13.335,17.498c0.905,1.188,2.357,1.708,3.745,1.514c1.088-0.086,2.138-0.597,2.853-1.523    L71.267,37.8C72.612,36.059,72.288,33.534,70.548,32.189z"></path></g></g><g><path d="M50,5C25.147,5,5,25.147,5,50c0,24.852,20.147,45,45,45c24.852,0,45-20.148,45-45C95,25.147,74.852,5,50,5z M71.267,37.8   L48.644,67.078c-0.715,0.926-1.766,1.437-2.853,1.523c-1.388,0.194-2.84-0.326-3.745-1.514L28.711,49.59   c-1.333-1.75-0.993-4.272,0.757-5.606v0c1.75-1.333,4.272-0.993,5.606,0.757l10.289,13.501l19.574-25.332   c1.345-1.741,3.87-2.065,5.611-0.719S72.612,36.059,71.267,37.8z"></path></g></svg>