<svg height='100px' width='100px'  fill="#ffffff" xmlns="http://www.w3.org/2000/svg" xmlns:xlink="http://www.w3.org/1999/xlink" version="1.1" x="0px" y="0px" viewBox="0 0 60 60" style="enable-background:new 0 0 60 60;" xml:space="preserve"><path d="M41.5311279,12.3511963c-0.0498047-0.2159424-0.1826782-0.4069214-0.3737183-0.5148926  c-1.9268188-1.1876831-4.0114136-2.0513916-6.2040405-2.574646c-0.2159424-0.0581665-0.4401855-0.0166016-0.6312256,0.0996704  c-0.1826782,0.1162109-0.3156128,0.2989502-0.3654175,0.5148926c-0.307312,1.2956543-2.0015869,2.267334-3.9533691,2.267334  c-1.960022,0-3.6542969-0.9716797-3.9615479-2.267334c-0.0499268-0.2159424-0.1827393-0.3986816-0.3737793-0.5148926  c-0.1827393-0.116272-0.4069214-0.1578369-0.6228638-0.0996704c-2.192627,0.5232544-4.2772827,1.3869629-6.2041016,2.574646  c-0.19104,0.1079712-0.3239136,0.2989502-0.3737793,0.5148926c-0.0498047,0.2076416-0.0165405,0.4402466,0.0997314,0.6229248  c0.6976318,1.1295166,0.1826782,3.0231323-1.1959839,4.4017944c-1.3786621,1.3787231-3.2639771,1.8936157-4.3934937,1.1959839  c-0.19104-0.116333-0.4152832-0.1495361-0.6312256-0.1079712c-0.2158813,0.0581055-0.3986206,0.19104-0.5149536,0.3737183  c-1.1876221,1.9268188-2.0513916,4.0114746-2.574585,6.2041016c-0.0498657,0.2158813-0.0083008,0.4401245,0.0996704,0.6311646  c0.116272,0.19104,0.307251,0.3239136,0.5231934,0.3737183C11.1669922,26.3456421,12.1386719,28.0482788,12.1386719,30  s-0.9716797,3.6543579-2.2590332,3.9533081c-0.2159424,0.0498047-0.4069214,0.1826782-0.5231934,0.3737183  c-0.1079712,0.19104-0.1495361,0.4152832-0.0996704,0.6312256c0.5231934,2.1925659,1.3869629,4.2772217,2.574585,6.2040405  c0.116333,0.1827393,0.2990723,0.3156128,0.5149536,0.3737793c0.2159424,0.0498047,0.4401855,0.0083008,0.6312256-0.1079712  c1.1295166-0.6976929,3.0148315-0.1827393,4.3934937,1.1959229s1.8936157,3.2723389,1.1959839,4.4017944  c-0.116272,0.1827393-0.1495361,0.4152832-0.0997314,0.6229248c0.0498657,0.2159424,0.1827393,0.4069214,0.3737793,0.5149536  c1.9268188,1.1876221,4.0114746,2.0513916,6.2041016,2.574646c0.0581055,0.0166016,0.1245117,0.0249023,0.190979,0.0249023  c0.1494751,0,0.307312-0.0415039,0.4318848-0.1246338c0.19104-0.1162109,0.3238525-0.2989502,0.3737793-0.5148926  c0.307251-1.2956543,2.0015259-2.267334,3.9615479-2.267334c1.9517822,0,3.6460571,0.9716797,3.9533691,2.267334  c0.0498047,0.2159424,0.1827393,0.3986816,0.3654175,0.5148926c0.19104,0.116333,0.4152832,0.1578369,0.6312256,0.0997314  c2.192627-0.5232544,4.2772217-1.3870239,6.2040405-2.574646c0.19104-0.1080322,0.3239136-0.2990112,0.3737183-0.5149536  c0.0498657-0.2076416,0.0166626-0.4401855-0.0996704-0.6229248c-0.6976318-1.1294556-0.1826782-3.0231323,1.1959839-4.4017944  s3.2722778-1.8936157,4.3934937-1.1959229c0.19104,0.116272,0.4152832,0.1577759,0.6312256,0.1079712  c0.2159424-0.0581665,0.3986816-0.19104,0.5148926-0.3737793c1.1876831-1.9268188,2.0514526-4.0114746,2.574707-6.2040405  c0.0498047-0.2159424,0.0165405-0.4401855-0.0996704-0.6312256c-0.116272-0.19104-0.307312-0.3239136-0.5232544-0.3737183  C48.8314819,33.6543579,47.8598022,31.9517212,47.8598022,30s0.9716797-3.6543579,2.2590332-3.9533691  c0.2159424-0.0498047,0.4069824-0.1826782,0.5232544-0.3737183c0.1162109-0.19104,0.1494751-0.4152832,0.0996704-0.6311646  c-0.5232544-2.192627-1.3870239-4.2772827-2.574707-6.2041016c-0.1162109-0.1826782-0.2989502-0.3156128-0.5148926-0.3737183  c-0.2159424-0.0415649-0.4401855-0.0083618-0.6312256,0.1079712c-1.1212158,0.6976318-3.0148315,0.1827393-4.3934937-1.1959839  c-1.3786621-1.3786621-1.8936157-3.2722778-1.1959839-4.4017944C41.5477905,12.7914429,41.5809937,12.5588379,41.5311279,12.3511963  z M30.0033569,38.4797363c-4.6758423,0-8.4796753-3.803894-8.4796753-8.4797363c0-4.6759033,3.803833-8.4797363,8.4796753-8.4797363  c4.6676025,0,8.4714355,3.803833,8.4714355,8.4797363C38.4747925,34.6758423,34.6709595,38.4797363,30.0033569,38.4797363z"></path></svg>